<?xml version="1.0" encoding="UTF-8" standalone="no"?>
<!-- Created with Inkscape (http://www.inkscape.org/) -->

<svg
   width="130.81128mm"
   height="53.565956mm"
   viewBox="0 0 130.81128 53.565956"
   version="1.1"
   id="svg1"
   inkscape:version="1.4.2 (f4327f4, 2025-05-13)"
   sodipodi:docname="sturdygb_logo.svg"
   xmlns:inkscape="http://www.inkscape.org/namespaces/inkscape"
   xmlns:sodipodi="http://sodipodi.sourceforge.net/DTD/sodipodi-0.dtd"
   xmlns="http://www.w3.org/2000/svg"
   xmlns:svg="http://www.w3.org/2000/svg">
  <sodipodi:namedview
     id="namedview1"
     pagecolor="#ffffff"
     bordercolor="#000000"
     borderopacity="0.25"
     inkscape:showpageshadow="2"
     inkscape:pageopacity="0.0"
     inkscape:pagecheckerboard="0"
     inkscape:deskcolor="#d1d1d1"
     inkscape:document-units="mm"
     inkscape:zoom="2.3017576"
     inkscape:cx="224.82819"
     inkscape:cy="185.72764"
     inkscape:window-width="3840"
     inkscape:window-height="2066"
     inkscape:window-x="-11"
     inkscape:window-y="-11"
     inkscape:window-maximized="1"
     inkscape:current-layer="layer1" />
  <defs
     id="defs1" />
  <g
     inkscape:label="Camada 1"
     inkscape:groupmode="layer"
     id="layer1"
     transform="translate(-12.644321,-74.371613)">
    <rect
       style="fill:#f9f9f9;stroke-width:0.163887"
       id="rect5"
       width="130.81128"
       height="53.565956"
       x="12.644321"
       y="74.371613"
       ry="10.612911" />
    <rect
       style="fill:#003380;stroke-width:0.238"
       id="rect1"
       width="35.1133"
       height="35.1133"
       x="92.985222"
       y="84.780914"
       ry="5.6896553" />
    <rect
       style="fill:#0044aa;stroke-width:0.238"
       id="rect2"
       width="35.113304"
       height="26.41626"
       x="92.985222"
       y="84.780914"
       ry="5.6896553" />
    <g
       id="text1"
       style="font-weight:bold;font-size:19.7556px;font-family:Alata;-inkscape-font-specification:'Alata Bold';fill:#ffffff;stroke-width:0.238"
       aria-label="sturdy GB">
      <path
         style="font-weight:normal;font-family:'Russo One';-inkscape-font-specification:'Russo One';fill:#000000"
         d="m 26.277397,104.52486 q 4.010386,0.29633 6.321792,0.29633 0.296334,0 0.49389,-0.19755 0.197556,-0.19756 0.197556,-0.49389 v -0.69145 h -4.247454 q -1.343381,0 -2.153361,-0.80998 -0.809979,-0.80998 -0.809979,-2.15336 v -0.691446 q 0,-1.343381 0.809979,-2.153361 0.80998,-0.809979 2.153361,-0.809979 h 6.716904 v 2.568228 h -5.531568 q -0.296334,0 -0.49389,0.197556 -0.197556,0.197556 -0.197556,0.493892 0,0.29633 0.197556,0.49389 0.197556,0.19755 0.49389,0.19755 h 3.556008 q 1.34338,0 2.15336,0.80998 0.80998,0.80998 0.80998,2.15336 v 0.79023 q 0,1.34338 -0.80998,2.15336 -0.80998,0.80998 -2.15336,0.80998 -3.496742,0 -7.507128,-0.39511 z m 19.16293,2.76578 q -1.916293,0.19756 -3.753564,0.19756 -1.343381,0 -2.153361,-0.80998 -0.809979,-0.80998 -0.809979,-2.15336 v -5.03768 h -1.185336 v -2.667006 h 1.185336 l 0.395112,-2.370672 h 3.062118 v 2.370672 h 2.46945 v 2.667006 h -2.46945 v 4.54379 q 0,0.29633 0.197556,0.49389 0.197556,0.19755 0.49389,0.19755 h 2.568228 z m 6.223024,-2.667 q 1.047047,0 2.370672,-0.39512 v -7.408346 h 3.45723 v 10.470466 h -3.062118 l -0.197556,-0.98778 q -0.928513,0.61243 -1.916293,0.90876 -0.968024,0.27658 -1.639715,0.27658 h -0.889002 q -1.343381,0 -2.15336,-0.80998 -0.80998,-0.80998 -0.80998,-2.15336 v -7.704686 h 3.45723 v 7.112016 q 0,0.29633 0.197556,0.49389 0.197556,0.19756 0.49389,0.19756 z m 13.828908,-4.938904 q -1.244603,0 -2.568228,0.592664 v 7.01324 h -3.45723 V 96.820174 h 3.062118 l 0.197556,1.284114 q 1.698982,-1.48167 3.556008,-1.48167 h 0.889002 v 3.062118 z m 10.075328,7.605904 -0.197556,-0.98778 q -0.928513,0.61243 -1.916293,0.90876 -0.968024,0.27658 -1.639715,0.27658 h -0.889002 q -1.343381,0 -2.15336,-0.80998 -0.80998,-0.80998 -0.80998,-2.15336 v -4.54379 q 0,-1.48167 0.829735,-2.311405 0.849491,-0.849491 2.331161,-0.849491 h 4.049898 v -3.358452 h 3.45723 v 13.828918 z m -2.765784,-2.667 q 1.047047,0 2.370672,-0.39512 v -4.74134 h -2.96334 q -0.790224,0 -0.790224,0.79022 v 3.65479 q 0,0.29633 0.197556,0.49389 0.197556,0.19756 0.49389,0.19756 z m 10.569229,6.22301 q -1.047047,0 -2.568228,-0.19756 v -2.56822 h 1.778004 q 0.750713,0 0.968024,-0.41487 0.237067,-0.41487 -0.07902,-1.16558 L 79.419914,96.820174 H 83.0747 l 2.46945,6.716906 2.074338,-6.716906 h 3.654786 l -3.95112,10.865576 q -0.572913,1.5607 -1.48167,2.35092 -0.908758,0.80998 -2.46945,0.80998 z"
         id="path5" />
      <path
         style="font-weight:normal;font-family:'Russo One';-inkscape-font-specification:'Russo One'"
         d="m 109.84352,106.99431 q -4.62281,0.49389 -8.49491,0.49389 -1.936048,0 -2.844805,-0.90876 -0.908758,-0.90876 -0.908758,-2.84481 v -6.321788 q 0,-2.074338 0.928513,-3.002851 0.948269,-0.948269 3.02261,-0.948269 h 7.11201 v 2.765784 h -6.32179 q -1.18534,0 -1.18534,1.185336 v 6.321788 q 0,0.45438 0.25683,0.73096 0.27658,0.25682 0.73095,0.25682 2.2719,0 4.14868,-0.0988 v -2.86457 h -2.56823 v -2.370668 h 6.12424 z m 1.97557,-13.532588 h 7.90224 q 1.93605,0 2.84481,0.889002 0.90876,0.869246 0.90876,2.667006 0,1.185336 -0.51365,1.936049 -0.51364,0.730957 -1.26436,1.027291 1.60021,0.43462 2.17312,2.1336 0.19755,0.61243 0.19755,1.42241 0,1.93605 -0.90875,2.8448 -0.90876,0.90876 -2.84481,0.90876 h -8.49491 z m 8.69247,9.482688 q 0,-1.18534 -1.18534,-1.18534 h -3.95112 v 2.76579 h 3.95112 q 1.18534,0 1.18534,-1.18534 z m -0.59267,-5.531568 q 0,-1.185336 -1.18534,-1.185336 h -3.35845 v 2.765784 h 3.35845 q 1.18534,0 1.18534,-1.185336 z"
         id="path6" />
    </g>
    <rect
       style="fill:#2a7fff;stroke-width:0.238"
       id="rect3"
       width="2.275862"
       height="4.551724"
       x="98.918716"
       y="112.70087" />
    <rect
       style="fill:#2a7fff;stroke-width:0.238"
       id="rect4"
       width="2.275862"
       height="4.551724"
       x="113.83879"
       y="-102.33251"
       transform="rotate(90)" />
    <circle
       style="fill:#2a7fff;stroke-width:0.238"
       id="path4"
       cx="119.03908"
       cy="115.99356"
       r="1.5036945" />
    <circle
       style="fill:#2a7fff;stroke-width:0.238"
       id="circle4"
       cx="122.74323"
       cy="113.87688"
       r="1.5036945" />
  </g>
</svg>
